<svg width="1200" height="520" viewBox="0 0 1200 520" fill="none" xmlns="http://www.w3.org/2000/svg" role="img" aria-labelledby="title desc">
  <title id="title">Agentic Delivery Playbook workflow diagram</title>
  <desc id="desc">A spec-gated coding-agent delivery loop from intake through closeout.</desc>
  <defs>
    <linearGradient id="bg" x1="0" y1="0" x2="1200" y2="520" gradientUnits="userSpaceOnUse">
      <stop stop-color="#090E1A"/>
      <stop offset="0.55" stop-color="#101827"/>
      <stop offset="1" stop-color="#07111F"/>
    </linearGradient>
    <linearGradient id="card" x1="0" y1="0" x2="1" y2="1">
      <stop stop-color="#142033"/>
      <stop offset="1" stop-color="#0F172A"/>
    </linearGradient>
    <linearGradient id="accent" x1="72" y1="60" x2="1128" y2="454" gradientUnits="userSpaceOnUse">
      <stop stop-color="#7C3AED"/>
      <stop offset="0.5" stop-color="#06B6D4"/>
      <stop offset="1" stop-color="#22C55E"/>
    </linearGradient>
    <filter id="softShadow" x="-20%" y="-20%" width="140%" height="140%" color-interpolation-filters="sRGB">
      <feDropShadow dx="0" dy="14" stdDeviation="18" flood-color="#000000" flood-opacity="0.35"/>
    </filter>
    <marker id="arrow" markerWidth="14" markerHeight="14" refX="10" refY="7" orient="auto" markerUnits="strokeWidth">
      <path d="M2 2L11 7L2 12" stroke="#67E8F9" stroke-width="2.4" stroke-linecap="round" stroke-linejoin="round"/>
    </marker>
    <style>
      .title { font: 800 44px ui-sans-serif, system-ui, -apple-system, BlinkMacSystemFont, "Segoe UI", sans-serif; fill: #F8FAFC; letter-spacing: -0.03em; }
      .subtitle { font: 500 19px ui-sans-serif, system-ui, -apple-system, BlinkMacSystemFont, "Segoe UI", sans-serif; fill: #A5B4FC; }
      .num { font: 800 15px ui-sans-serif, system-ui, -apple-system, BlinkMacSystemFont, "Segoe UI", sans-serif; fill: #08111F; }
      .label { font: 800 23px ui-sans-serif, system-ui, -apple-system, BlinkMacSystemFont, "Segoe UI", sans-serif; fill: #F8FAFC; letter-spacing: -0.02em; }
      .hint { font: 500 15px ui-sans-serif, system-ui, -apple-system, BlinkMacSystemFont, "Segoe UI", sans-serif; fill: #CBD5E1; }
      .footer { font: 600 17px ui-sans-serif, system-ui, -apple-system, BlinkMacSystemFont, "Segoe UI", sans-serif; fill: #BAE6FD; }
      .arrow { stroke: #67E8F9; stroke-width: 3.2; stroke-linecap: round; stroke-linejoin: round; opacity: 0.95; marker-end: url(#arrow); }
      .ghost { stroke: #334155; stroke-width: 1; opacity: 0.45; }
    </style>
  </defs>

  <rect width="1200" height="520" rx="34" fill="url(#bg)"/>

  <g opacity="0.25">
    <path class="ghost" d="M90 455H1110"/>
    <path class="ghost" d="M90 390H1110"/>
    <path class="ghost" d="M90 325H1110"/>
    <path class="ghost" d="M90 260H1110"/>
    <path class="ghost" d="M90 195H1110"/>
    <path class="ghost" d="M90 130H1110"/>
    <path class="ghost" d="M170 92V455"/>
    <path class="ghost" d="M350 92V455"/>
    <path class="ghost" d="M530 92V455"/>
    <path class="ghost" d="M710 92V455"/>
    <path class="ghost" d="M890 92V455"/>
    <path class="ghost" d="M1070 92V455"/>
  </g>

  <rect x="42" y="38" width="1116" height="444" rx="28" stroke="url(#accent)" stroke-width="2" opacity="0.55"/>
  <circle cx="1040" cy="86" r="128" fill="#06B6D4" opacity="0.10"/>
  <circle cx="148" cy="448" r="150" fill="#7C3AED" opacity="0.12"/>

  <text x="72" y="94" class="title">Agentic Delivery Playbook</text>
  <text x="74" y="128" class="subtitle">Spec-gated software delivery for coding agents</text>

  <!-- top row arrows -->
  <path class="arrow" d="M310 218H346"/>
  <path class="arrow" d="M580 218H616"/>
  <path class="arrow" d="M850 218H886"/>

  <!-- bridge to implementation -->
  <path class="arrow" d="M1005 266C1005 303 205 294 205 326"/>

  <!-- bottom row arrows -->
  <path class="arrow" d="M310 378H346"/>
  <path class="arrow" d="M580 378H616"/>
  <path class="arrow" d="M850 378H886"/>

  <!-- card helper groups -->
  <g filter="url(#softShadow)">
    <rect x="80" y="170" width="230" height="96" rx="18" fill="url(#card)" stroke="#334155"/>
    <circle cx="111" cy="201" r="17" fill="#67E8F9"/>
    <text x="106" y="206" class="num">1</text>
    <text x="80" y="170"/>
    <text x="132" y="203" class="label">Intake</text>
    <text x="132" y="229" class="hint">intent, risks, non-goals</text>
  </g>

  <g filter="url(#softShadow)">
    <rect x="350" y="170" width="230" height="96" rx="18" fill="url(#card)" stroke="#334155"/>
    <circle cx="381" cy="201" r="17" fill="#A78BFA"/>
    <text x="376" y="206" class="num">2</text>
    <text x="402" y="203" class="label">Spec</text>
    <text x="402" y="229" class="hint">implementation contract</text>
  </g>

  <g filter="url(#softShadow)">
    <rect x="620" y="170" width="230" height="96" rx="18" fill="url(#card)" stroke="#334155"/>
    <circle cx="651" cy="201" r="17" fill="#F472B6"/>
    <text x="646" y="206" class="num">3</text>
    <text x="672" y="203" class="label">Critique</text>
    <text x="672" y="229" class="hint">attack gaps early</text>
  </g>

  <g filter="url(#softShadow)">
    <rect x="890" y="170" width="230" height="96" rx="18" fill="url(#card)" stroke="#334155"/>
    <circle cx="921" cy="201" r="17" fill="#FBBF24"/>
    <text x="916" y="206" class="num">4</text>
    <text x="942" y="203" class="label">Approval</text>
    <text x="942" y="229" class="hint">human gate</text>
  </g>

  <g filter="url(#softShadow)">
    <rect x="80" y="330" width="230" height="96" rx="18" fill="url(#card)" stroke="#334155"/>
    <circle cx="111" cy="361" r="17" fill="#22D3EE"/>
    <text x="106" y="366" class="num">5</text>
    <text x="132" y="363" class="label">Implement</text>
    <text x="132" y="389" class="hint">smallest correct diff</text>
  </g>

  <g filter="url(#softShadow)">
    <rect x="350" y="330" width="230" height="96" rx="18" fill="url(#card)" stroke="#334155"/>
    <circle cx="381" cy="361" r="17" fill="#34D399"/>
    <text x="376" y="366" class="num">6</text>
    <text x="402" y="363" class="label">QA</text>
    <text x="402" y="389" class="hint">evidence over summary</text>
  </g>

  <g filter="url(#softShadow)">
    <rect x="620" y="330" width="230" height="96" rx="18" fill="url(#card)" stroke="#334155"/>
    <circle cx="651" cy="361" r="17" fill="#FB7185"/>
    <text x="646" y="366" class="num">7</text>
    <text x="672" y="363" class="label">Fix / Escalate</text>
    <text x="672" y="389" class="hint">stop blind drift loops</text>
  </g>

  <g filter="url(#softShadow)">
    <rect x="890" y="330" width="230" height="96" rx="18" fill="url(#card)" stroke="#334155"/>
    <circle cx="921" cy="361" r="17" fill="#86EFAC"/>
    <text x="916" y="366" class="num">8</text>
    <text x="942" y="363" class="label">Closeout</text>
    <text x="942" y="389" class="hint">record run evidence</text>
  </g>

  <text x="600" y="468" text-anchor="middle" class="footer">Artifacts: spec.md · run.json · notes.md · validation evidence</text>
</svg>
